PathFileType  4	(X/Y/Z) /workspace/opencap-mono/results/ba8f9f72-c3c0-4cdb-a5f6-69ba924cb011/abb3620c-82e1-4ee9-a98e-9a9992d31a42/MarkerData/abb3620c-82e1-4ee9-a98e-9a9992d31a42_5
DataRate	CameraRate	NumFrames	NumMarkers	Units	OrigDataRate	OrigDataStartFrame	OrigNumFrames
60.0	60.0	5	63	m	60.0	541	720
Frame#	Time	sternum			r_shoulder			l_shoulder			r_elbow			l_elbow			r_melbow			l_melbow			r_wrist_radius			l_wrist_radius			r_wrist_ulna			l_wrist_ulna			C7			r_ASIS			l_ASIS			r_PSIS			l_PSIS			r_knee			l_knee			r_mknee			l_mknee			r_ankle			l_ankle			r_mankle			l_mankle			r_5meta			l_5meta			r_toe			l_toe			r_pinky			l_pinky			r_index			l_index			L4			T6			r_big_toe			l_big_toe			l_calc			r_calc			Nose			Neck			RShoulder			RElbow			RWrist			LShoulder			LElbow			LWrist			MidHip			RHip			RKnee			RAnkle			LHip			LKnee			LAnkle			REye			LEye			REar			LEar			LBigToe			LSmallToe			LHeel			RBigToe			RSmallToe			RHeel			
		X1	Y1	Z1	X2	Y2	Z2	X3	Y3	Z3	X4	Y4	Z4	X5	Y5	Z5	X6	Y6	Z6	X7	Y7	Z7	X8	Y8	Z8	X9	Y9	Z9	X10	Y10	Z10	X11	Y11	Z11	X12	Y12	Z12	X13	Y13	Z13	X14	Y14	Z14	X15	Y15	Z15	X16	Y16	Z16	X17	Y17	Z17	X18	Y18	Z18	X19	Y19	Z19	X20	Y20	Z20	X21	Y21	Z21	X22	Y22	Z22	X23	Y23	Z23	X24	Y24	Z24	X25	Y25	Z25	X26	Y26	Z26	X27	Y27	Z27	X28	Y28	Z28	X29	Y29	Z29	X30	Y30	Z30	X31	Y31	Z31	X32	Y32	Z32	X33	Y33	Z33	X34	Y34	Z34	X35	Y35	Z35	X36	Y36	Z36	X37	Y37	Z37	X38	Y38	Z38	X39	Y39	Z39	X40	Y40	Z40	X41	Y41	Z41	X42	Y42	Z42	X43	Y43	Z43	X44	Y44	Z44	X45	Y45	Z45	X46	Y46	Z46	X47	Y47	Z47	X48	Y48	Z48	X49	Y49	Z49	X50	Y50	Z50	X51	Y51	Z51	X52	Y52	Z52	X53	Y53	Z53	X54	Y54	Z54	X55	Y55	Z55	X56	Y56	Z56	X57	Y57	Z57	X58	Y58	Z58	X59	Y59	Z59	X60	Y60	Z60	X61	Y61	Z61	X62	Y62	Z62	X63	Y63	Z63	

541	9.0000000	4.7966769	2.0070352	12.8832207	4.6363019	2.0473252	12.8976999	4.9193003	2.0275152	12.7802567	4.4202831	1.7861352	12.8121842	5.0431143	1.6979152	12.8040522	4.4493773	1.7715152	12.7783279	5.0003143	1.6751852	12.7947528	4.5940721	1.6488652	12.9616659	4.9137904	1.8074552	13.0046522	4.5631332	1.6180652	12.9659963	4.9355478	1.7810852	13.0289321	4.7475125	2.0514052	12.7755776	4.6939197	1.5836552	12.9826714	4.8797937	1.5548552	12.8846183	4.6658890	1.6076252	12.8062343	4.7565160	1.5949252	12.7519157	4.6648028	1.1567352	13.1055929	4.8346375	1.0917352	12.8236304	4.7452301	1.1406052	13.0375365	4.7416289	1.1042052	12.8693796	4.6303213	0.7171352	13.1731499	4.6352581	0.7788252	12.5704919	4.6864948	0.7065952	13.1559702	4.5924838	0.7752552	12.6091243	4.6430627	0.6646552	13.2687739	4.6479624	0.6731952	12.5689682	4.7109451	0.6768052	13.2881474	4.6310493	0.6508352	12.6342244	4.6061259	1.5634752	13.0285242	4.9142229	1.8161352	13.1007153	4.6521327	1.6131852	13.0242026	4.8842791	1.8633652	13.0704003	4.7309112	1.6942052	12.7898598	4.7327690	1.9221752	12.7491287	4.7549950	0.6713852	13.3034030	4.6117460	0.6246452	12.6678356	4.5733144	0.7986952	12.5312133	4.6256863	0.6678252	13.1128847	4.8951078	2.1788252	12.9183619	4.7685282	1.9652952	12.8270741	4.6053922	1.9783552	12.8780454	4.4494283	1.7801252	12.8060686	4.5872921	1.6182952	12.9601153	4.9316552	1.9522352	12.7760985	5.0161307	1.6944952	12.8067624	4.9120573	1.7823652	13.0235835	4.7500576	1.5089552	12.8777345	4.6733980	1.5208352	12.9282938	4.6969392	1.1154052	13.1016995	4.6600883	0.7013452	13.1591702	4.8267173	1.4970652	12.8271753	4.7954512	1.0610652	12.8360645	4.6056778	0.7799152	12.5885198	4.8493991	2.2204752	12.9154188	4.8923865	2.2117852	12.8657527	4.7543920	2.2005652	12.8854050	4.8485816	2.1823552	12.7839784	4.6253762	0.6004652	12.6718744	4.6586770	0.6210652	12.6015490	4.5733144	0.7986952	12.5312133	4.7617779	0.6677152	13.3255330	4.6771468	0.6631652	13.3245436	4.6256255	0.6504152	13.1180312
542	9.0166667	4.8066954	2.0079252	12.9107875	4.6466606	2.0460552	12.9277314	4.9285456	2.0287652	12.8062161	4.4328185	1.7784252	12.8568795	5.0503238	1.6975552	12.8203456	4.4607066	1.7636152	12.8222732	5.0075891	1.6754952	12.8109774	4.6152817	1.6487752	13.0029031	4.9250093	1.7943452	13.0303072	4.5851348	1.6176452	13.0093682	4.9475936	1.7667752	13.0522694	4.7560426	2.0519552	12.8038517	4.7060192	1.5841452	13.0099397	4.8921753	1.5565452	12.9117313	4.6779389	1.6078752	12.8331595	4.7688336	1.5951752	12.7788113	4.6800022	1.1570752	13.1331702	4.8637507	1.0923852	12.8707047	4.7602880	1.1416852	13.0646838	4.7698531	1.1034552	12.9151897	4.6365290	0.7162852	13.1763536	4.6595763	0.7982952	12.6026966	4.6926831	0.7047652	13.1591207	4.6166278	0.7930352	12.6408505	4.6473068	0.6635552	13.2715032	4.6716347	0.6932152	12.5950569	4.7155054	0.6742652	13.2913110	4.6544668	0.6669252	12.6586827	4.6312368	1.5653852	13.0715695	4.9275183	1.7966652	13.1268862	4.6764580	1.6158652	13.0640349	4.8962937	1.8453252	13.1006191	4.7428121	1.6949052	12.8173885	4.7419582	1.9224952	12.7776218	4.7591893	0.6678652	13.3070911	4.6348078	0.6387752	12.6904067	4.5978968	0.8210252	12.5642473	4.6310081	0.6675552	13.1152670	4.9026833	2.1810852	12.9460804	4.7783777	1.9648352	12.8554999	4.6161042	1.9763752	12.9097091	4.4617484	1.7729452	12.8497587	4.6089702	1.6180852	13.0022881	4.9406465	1.9532852	12.8012774	5.0234601	1.6941652	12.8236744	4.9239940	1.7682652	13.0476754	4.7627179	1.5094852	12.9053857	4.6858068	1.5212852	12.9555850	4.7120199	1.1154052	13.1283719	4.6660404	0.6996452	13.1620229	4.8396338	1.4976752	12.8551997	4.8247070	1.0619652	12.8831170	4.6297458	0.7985252	12.6205747	4.8567998	2.2225152	12.9426365	4.9002222	2.2138552	12.8933388	4.7621266	2.2018952	12.9120723	4.8570885	2.1838652	12.8114030	4.6481886	0.6141852	12.6928507	4.6817418	0.6389152	12.6240663	4.5978968	0.8210252	12.5642473	4.7655427	0.6639152	13.3293850	4.6809850	0.6612952	13.3273154	4.6305214	0.6500352	13.1203804
543	9.0333333	4.8170099	2.0040752	12.9387130	4.6571544	2.0391952	12.9571418	4.9387282	2.0267952	12.8334070	4.4500435	1.7624452	12.9009591	5.0596988	1.6946352	12.8333677	4.4770235	1.7476852	12.8658631	5.0172062	1.6733752	12.8235276	4.6419997	1.6439552	13.0445132	4.9401174	1.7695052	13.0558559	4.6130709	1.6122752	13.0531461	4.9638884	1.7403752	13.0740903	4.7655273	2.0484052	12.8325157	4.7194695	1.5798552	13.0347374	4.9064128	1.5540352	12.9370175	4.6918342	1.6031552	12.8575468	4.7832655	1.5908352	12.8035150	4.6963876	1.1529452	13.1591269	4.8947753	1.0902052	12.9133961	4.7769452	1.1383052	13.0906017	4.7999204	1.0996952	12.9567396	4.6450394	0.7124052	13.1786890	4.6897088	0.8089752	12.6356595	4.7012195	0.7002052	13.1615897	4.6465124	0.8021852	12.6732564	4.6541673	0.6601352	13.2737093	4.7035436	0.7047352	12.6249201	4.7225478	0.6700752	13.2939550	4.6863730	0.6760552	12.6874633	4.6625958	1.5633852	13.1153658	4.9457249	1.7619452	13.1522026	4.7063322	1.6149252	13.1044135	4.9126699	1.8121852	13.1322981	4.7564365	1.6910552	12.8426646	4.7528188	1.9188452	12.8052282	4.7658990	0.6631552	13.3103302	4.6668108	0.6465352	12.7179857	4.6279320	0.8322752	12.5972531	4.6389951	0.6638952	13.1171156	4.9089879	2.1785652	12.9770682	4.7891829	1.9598952	12.8836984	4.6275003	1.9686152	12.9403789	4.4787793	1.7578252	12.8929532	4.6365706	1.6131452	13.0449165	4.9508613	1.9511852	12.8270269	5.0330117	1.6910952	12.8374299	4.9401471	1.7420752	13.0705336	4.7773941	1.5054252	12.9308433	4.7000279	1.5168452	12.9804331	4.7284026	1.1110852	13.1535770	4.6743531	0.6950652	13.1641669	4.8547512	1.4940052	12.8812493	4.8560083	1.0598652	12.9259485	4.6594873	0.8082752	12.6531456	4.8627026	2.2194852	12.9731611	4.9071287	2.2117852	12.9245741	4.7688312	2.1979152	12.9408302	4.8657213	2.1819752	12.8416337	4.6804421	0.6219852	12.7196086	4.7141757	0.6494852	12.6520227	4.6279320	0.8322752	12.5972531	4.7718768	0.6591152	13.3327909	4.6874008	0.6577252	13.3296231	4.6382191	0.6462652	13.1222817
544	9.0500000	4.8264552	1.9972352	12.9649533	4.6664643	2.0292052	12.9830099	4.9490466	2.0217152	12.8601648	4.4690269	1.7427352	12.9401320	5.0692676	1.6892852	12.8480801	4.4957429	1.7278552	12.9050343	5.0271873	1.6688052	12.8372848	4.6690074	1.6392652	13.0846032	4.9525886	1.7405752	13.0792039	4.6415707	1.6069852	13.0952892	4.9773359	1.7103552	13.0938774	4.7750488	2.0415552	12.8589239	4.7320578	1.5726352	13.0579525	4.9203016	1.5486952	12.9616555	4.7057581	1.5951952	12.8801931	4.7980118	1.5833652	12.8269530	4.7115040	1.1458652	13.1838298	4.9245164	1.0863652	12.9547939	4.7927655	1.1320352	13.1156881	4.8286624	1.0943552	12.9967778	4.6538627	0.7066852	13.1810159	4.7213624	0.8130152	12.6707551	4.7101643	0.6940952	13.1642712	4.6778499	0.8049452	12.7077522	4.6613812	0.6548952	13.2759146	4.7381826	0.7096352	12.6590797	4.7297806	0.6644652	13.2968533	4.7211175	0.6796852	12.7210652	4.6939124	1.5627852	13.1585906	4.9601832	1.7232452	13.1742706	4.7356615	1.6154852	13.1443282	4.9255043	1.7742552	13.1604277	4.7701069	1.6840252	12.8663512	4.7642201	1.9118452	12.8306813	4.7727713	0.6573252	13.3139542	4.7019122	0.6492152	12.7508934	4.6593837	0.8354652	12.6316697	4.6477881	0.6583552	13.1189870	4.9144336	2.1731052	13.0060886	4.7997532	1.9518252	12.9100108	4.6381342	1.9576452	12.9673830	4.4976592	1.7390452	12.9316145	4.6647754	1.6083552	13.0862489	4.9613631	1.9460152	12.8526344	5.0427341	1.6854652	12.8525228	4.9534934	1.7120752	13.0910348	4.7918216	1.4984052	12.9550595	4.7137707	1.5093652	13.0036570	4.7436385	1.1039452	13.1777399	4.6830586	0.6888452	13.1664389	4.8698768	1.4874452	12.9064530	4.8860587	1.0560452	12.9675347	4.6906871	0.8114152	12.6876765	4.8676841	2.2134352	13.0015679	4.9131519	2.2066552	12.9537756	4.7747292	2.1907152	12.9674134	4.8736466	2.1768352	12.8698796	4.7160871	0.6249552	12.7522732	4.7499732	0.6542252	12.6855198	4.6593837	0.8354652	12.6316697	4.7783202	0.6532252	13.3366011	4.6939901	0.6524952	13.3320557	4.6468170	0.6406152	13.1242166
545	9.0666667	4.8366093	1.9873152	12.9915903	4.6765482	2.0165652	13.0093715	4.9599838	2.0134952	12.8872993	4.4890683	1.7214952	12.9797100	5.0785926	1.6810852	12.8617299	4.5157034	1.7063152	12.9447621	5.0367689	1.6616352	12.8501715	4.6960317	1.6354752	13.1259589	4.9669975	1.7073052	13.0999579	4.6702539	1.6026952	13.1387425	4.9926433	1.6762652	13.1106699	4.7851293	2.0320752	12.8859789	4.7438869	1.5627752	13.0799089	4.9336368	1.5407052	12.9853513	4.7193197	1.5845852	12.9015339	4.8124949	1.5731852	12.8492753	4.7258869	1.1366452	13.2083783	4.9542163	1.0815452	12.9979599	4.8080318	1.1235352	13.1408030	4.8573065	1.0880852	13.0384695	4.6624026	0.7000252	13.1834534	4.7533476	0.8140052	12.7096354	4.7188241	0.6871252	13.1671617	4.7095692	0.8049052	12.7460672	4.6683172	0.6488752	13.2782662	4.7734990	0.7115052	12.6982224	4.7366667	0.6582052	13.2999981	4.7566966	0.6809852	12.7599995	4.7250029	1.5640852	13.2035305	4.9772569	1.6800952	13.1925046	4.7644698	1.6177952	13.1858096	4.9411765	1.7312852	13.1851691	4.7835039	1.6744852	12.8890387	4.7758981	1.9024452	12.8562745	4.7792940	0.6509152	13.3178784	4.7380199	0.6498552	12.7895224	4.6911723	0.8349652	12.6695757	4.6564385	0.6518152	13.1210457	4.9222756	2.1641352	13.0345604	4.8108043	1.9409452	12.9365696	4.6493862	1.9441652	12.9947416	4.5175494	1.7186852	12.9707358	4.6931757	1.6045452	13.1290075	4.9722267	1.9377252	12.8783885	5.0522290	1.6770252	12.8666601	4.9687128	1.6779852	13.1087021	4.8057571	1.4887052	12.9782960	4.7269223	1.4992252	13.0257114	4.7582025	1.0947152	13.2018763	4.6914868	0.6817252	13.1688795	4.8846010	1.4781852	12.9308848	4.9160771	1.0513452	13.0110588	4.7222486	0.8115752	12.7259510	4.8751836	2.2040252	13.0301116	4.9209826	2.1980552	12.9824848	4.7825621	2.1805752	12.9953844	4.8821284	2.1684952	12.8981862	4.7528315	0.6259752	12.7909564	4.7867002	0.6563652	12.7247135	4.6911723	0.8349652	12.6695757	4.7843693	0.6467452	13.3407127	4.7002085	0.6465752	13.3346685	4.6552904	0.6339652	13.1263473
